<?xml version="1.0" encoding="UTF-8"?>
<svg width="800" height="400" xmlns="http://www.w3.org/2000/svg">
    <title>Perfil de elevación - Ruta de los Molinos del Navia</title>
    
    <!-- Fondo -->
    <rect width="100%" height="100%" fill="#f5f5f5"/>
    
    <!-- Cuadrícula -->
    
    <line x1="50" y1="50.0" 
          x2="750" y2="50.0" 
          stroke="#cccccc" stroke-width="1"/>
    <text x="40" y="55.0" 
          text-anchor="end" font-size="12">795m</text>
    <line x1="50" y1="110.0" 
          x2="750" y2="110.0" 
          stroke="#cccccc" stroke-width="1"/>
    <text x="40" y="115.0" 
          text-anchor="end" font-size="12">800m</text>
    <line x1="50" y1="170.0" 
          x2="750" y2="170.0" 
          stroke="#cccccc" stroke-width="1"/>
    <text x="40" y="175.0" 
          text-anchor="end" font-size="12">805m</text>
    <line x1="50" y1="230.0" 
          x2="750" y2="230.0" 
          stroke="#cccccc" stroke-width="1"/>
    <text x="40" y="235.0" 
          text-anchor="end" font-size="12">810m</text>
    <line x1="50" y1="290.0" 
          x2="750" y2="290.0" 
          stroke="#cccccc" stroke-width="1"/>
    <text x="40" y="295.0" 
          text-anchor="end" font-size="12">815m</text>
    <line x1="50" y1="350.0" 
          x2="750" y2="350.0" 
          stroke="#cccccc" stroke-width="1"/>
    <text x="40" y="355.0" 
          text-anchor="end" font-size="12">820m</text>
    <line x1="50.0" y1="50" 
          x2="50.0" y2="350" 
          stroke="#cccccc" stroke-width="1"/>
    <text x="50.0" y="370" 
          text-anchor="middle" font-size="12">0m</text>
    <line x1="137.5" y1="50" 
          x2="137.5" y2="350" 
          stroke="#cccccc" stroke-width="1"/>
    <text x="137.5" y="370" 
          text-anchor="middle" font-size="12">287m</text>
    <line x1="225.0" y1="50" 
          x2="225.0" y2="350" 
          stroke="#cccccc" stroke-width="1"/>
    <text x="225.0" y="370" 
          text-anchor="middle" font-size="12">575m</text>
    <line x1="312.5" y1="50" 
          x2="312.5" y2="350" 
          stroke="#cccccc" stroke-width="1"/>
    <text x="312.5" y="370" 
          text-anchor="middle" font-size="12">862m</text>
    <line x1="400.0" y1="50" 
          x2="400.0" y2="350" 
          stroke="#cccccc" stroke-width="1"/>
    <text x="400.0" y="370" 
          text-anchor="middle" font-size="12">1150m</text>
    <line x1="487.5" y1="50" 
          x2="487.5" y2="350" 
          stroke="#cccccc" stroke-width="1"/>
    <text x="487.5" y="370" 
          text-anchor="middle" font-size="12">1437m</text>
    <line x1="575.0" y1="50" 
          x2="575.0" y2="350" 
          stroke="#cccccc" stroke-width="1"/>
    <text x="575.0" y="370" 
          text-anchor="middle" font-size="12">1725m</text>
    <line x1="662.5" y1="50" 
          x2="662.5" y2="350" 
          stroke="#cccccc" stroke-width="1"/>
    <text x="662.5" y="370" 
          text-anchor="middle" font-size="12">2012m</text>
    <line x1="750.0" y1="50" 
          x2="750.0" y2="350" 
          stroke="#cccccc" stroke-width="1"/>
    <text x="750.0" y="370" 
          text-anchor="middle" font-size="12">2300m</text>
    
    <!-- Línea de elevación -->
    <path d="M 50.0,50.0 L 50.0,110.0 L 95.65217391304347,170.0 L 186.95652173913044,230.0 L 323.9130434782609,290.0 L 506.5217391304348,350.0" 
          stroke="#ff0000" 
          stroke-width="3" 
          fill="none"/>
    
    <!-- Puntos de los hitos -->
    
    <circle cx="50.0" cy="50.0" r="5" fill="#ff0000"/>
    <text x="60.0" y="40.0" font-size="12">Hito 1</text>
    <circle cx="50.0" cy="110.0" r="5" fill="#ff0000"/>
    <text x="60.0" y="100.0" font-size="12">Hito 2</text>
    <circle cx="95.65217391304347" cy="170.0" r="5" fill="#ff0000"/>
    <text x="105.65217391304347" y="160.0" font-size="12">Hito 3</text>
    <circle cx="186.95652173913044" cy="230.0" r="5" fill="#ff0000"/>
    <text x="196.95652173913044" y="220.0" font-size="12">Hito 4</text>
    <circle cx="323.9130434782609" cy="290.0" r="5" fill="#ff0000"/>
    <text x="333.9130434782609" y="280.0" font-size="12">Hito 5</text>
    <circle cx="506.5217391304348" cy="350.0" r="5" fill="#ff0000"/>
    <text x="516.5217391304348" y="340.0" font-size="12">Hito 6</text>
    
    <!-- Etiquetas de ejes -->
    
    <text x="400.0" y="390" 
          text-anchor="middle" font-size="14">Distancia (metros)</text>
    <text x="20" y="200.0" 
          text-anchor="middle" font-size="14" 
          transform="rotate(-90, 20, 200.0)">Altitud (metros)</text>
    
    <!-- Título -->
    <text x="400.0" y="30" 
          text-anchor="middle" font-size="20" font-weight="bold">Ruta de los Molinos del Navia</text>
</svg>