<?xml version="1.0" encoding="UTF-8"?>
<svg width="800" height="400" xmlns="http://www.w3.org/2000/svg">
    <title>Perfil de elevación - Ruta de la Sidra de Pesoz</title>
    
    <!-- Fondo -->
    <rect width="100%" height="100%" fill="#f5f5f5"/>
    
    <!-- Cuadrícula -->
    
    <line x1="50" y1="50.0" 
          x2="750" y2="50.0" 
          stroke="#cccccc" stroke-width="1"/>
    <text x="40" y="55.0" 
          text-anchor="end" font-size="12">850m</text>
    <line x1="50" y1="110.0" 
          x2="750" y2="110.0" 
          stroke="#cccccc" stroke-width="1"/>
    <text x="40" y="115.0" 
          text-anchor="end" font-size="12">855m</text>
    <line x1="50" y1="170.0" 
          x2="750" y2="170.0" 
          stroke="#cccccc" stroke-width="1"/>
    <text x="40" y="175.0" 
          text-anchor="end" font-size="12">860m</text>
    <line x1="50" y1="230.0" 
          x2="750" y2="230.0" 
          stroke="#cccccc" stroke-width="1"/>
    <text x="40" y="235.0" 
          text-anchor="end" font-size="12">865m</text>
    <line x1="50" y1="290.0" 
          x2="750" y2="290.0" 
          stroke="#cccccc" stroke-width="1"/>
    <text x="40" y="295.0" 
          text-anchor="end" font-size="12">870m</text>
    <line x1="50" y1="350.0" 
          x2="750" y2="350.0" 
          stroke="#cccccc" stroke-width="1"/>
    <text x="40" y="355.0" 
          text-anchor="end" font-size="12">875m</text>
    <line x1="50.0" y1="50" 
          x2="50.0" y2="350" 
          stroke="#cccccc" stroke-width="1"/>
    <text x="50.0" y="370" 
          text-anchor="middle" font-size="12">0m</text>
    <line x1="137.5" y1="50" 
          x2="137.5" y2="350" 
          stroke="#cccccc" stroke-width="1"/>
    <text x="137.5" y="370" 
          text-anchor="middle" font-size="12">250m</text>
    <line x1="225.0" y1="50" 
          x2="225.0" y2="350" 
          stroke="#cccccc" stroke-width="1"/>
    <text x="225.0" y="370" 
          text-anchor="middle" font-size="12">500m</text>
    <line x1="312.5" y1="50" 
          x2="312.5" y2="350" 
          stroke="#cccccc" stroke-width="1"/>
    <text x="312.5" y="370" 
          text-anchor="middle" font-size="12">750m</text>
    <line x1="400.0" y1="50" 
          x2="400.0" y2="350" 
          stroke="#cccccc" stroke-width="1"/>
    <text x="400.0" y="370" 
          text-anchor="middle" font-size="12">1000m</text>
    <line x1="487.5" y1="50" 
          x2="487.5" y2="350" 
          stroke="#cccccc" stroke-width="1"/>
    <text x="487.5" y="370" 
          text-anchor="middle" font-size="12">1250m</text>
    <line x1="575.0" y1="50" 
          x2="575.0" y2="350" 
          stroke="#cccccc" stroke-width="1"/>
    <text x="575.0" y="370" 
          text-anchor="middle" font-size="12">1500m</text>
    <line x1="662.5" y1="50" 
          x2="662.5" y2="350" 
          stroke="#cccccc" stroke-width="1"/>
    <text x="662.5" y="370" 
          text-anchor="middle" font-size="12">1750m</text>
    <line x1="750.0" y1="50" 
          x2="750.0" y2="350" 
          stroke="#cccccc" stroke-width="1"/>
    <text x="750.0" y="370" 
          text-anchor="middle" font-size="12">2000m</text>
    
    <!-- Línea de elevación -->
    <path d="M 50.0,350.0 L 50.0,290.0 L 85.0,230.0 L 172.5,170.0 L 312.5,110.0 L 505.0,50.0" 
          stroke="#ff0000" 
          stroke-width="3" 
          fill="none"/>
    
    <!-- Puntos de los hitos -->
    
    <circle cx="50.0" cy="350.0" r="5" fill="#ff0000"/>
    <text x="60.0" y="340.0" font-size="12">Hito 1</text>
    <circle cx="50.0" cy="290.0" r="5" fill="#ff0000"/>
    <text x="60.0" y="280.0" font-size="12">Hito 2</text>
    <circle cx="85.0" cy="230.0" r="5" fill="#ff0000"/>
    <text x="95.0" y="220.0" font-size="12">Hito 3</text>
    <circle cx="172.5" cy="170.0" r="5" fill="#ff0000"/>
    <text x="182.5" y="160.0" font-size="12">Hito 4</text>
    <circle cx="312.5" cy="110.0" r="5" fill="#ff0000"/>
    <text x="322.5" y="100.0" font-size="12">Hito 5</text>
    <circle cx="505.0" cy="50.0" r="5" fill="#ff0000"/>
    <text x="515.0" y="40.0" font-size="12">Hito 6</text>
    
    <!-- Etiquetas de ejes -->
    
    <text x="400.0" y="390" 
          text-anchor="middle" font-size="14">Distancia (metros)</text>
    <text x="20" y="200.0" 
          text-anchor="middle" font-size="14" 
          transform="rotate(-90, 20, 200.0)">Altitud (metros)</text>
    
    <!-- Título -->
    <text x="400.0" y="30" 
          text-anchor="middle" font-size="20" font-weight="bold">Ruta de la Sidra de Pesoz</text>
</svg>